ffmpeg started on 2025-06-04 at 21:18:22
Report written to "D:\Convert\FFMetrics\reports\psnr_report-6.txt"
Log level: 32
Command line:
ffmpeg -hide_banner -nostdin -i "G:\\\xc0\xed\xe8\xec\xe5\\\xce\xed\xe3\xee\xe8\xed\xe3\xe8\\!_36_\xce\xf1\xe5\xed\xfc_2024\\DreamCast\\\xc5\xf1\xeb\xe8 \xe1\xfb \xec\xee\xff \xe6\xe5\xed\xe0 \xf1\xf2\xe0\xeb\xe0 \xec\xeb\xe0\xe4\xf8\xe5\xea\xeb\xe0\xf1\xf1\xed\xe8\xf6\xe5\xe9\\[DC] Tsuma Shougakusei ni Naru - 05_Telegram_HEVC.mkv" -i "G:\\\xc0\xed\xe8\xec\xe5\\\xce\xed\xe3\xee\xe8\xed\xe3\xe8\\!_36_\xce\xf1\xe5\xed\xfc_2024\\DreamCast\\\xc5\xf1\xeb\xe8 \xe1\xfb \xec\xee\xff \xe6\xe5\xed\xe0 \xf1\xf2\xe0\xeb\xe0 \xec\xeb\xe0\xe4\xf8\xe5\xea\xeb\xe0\xf1\xf1\xed\xe8\xf6\xe5\xe9\\[DC] Tsuma Shougakusei ni Naru - 05_Telegram.mp4" -lavfi "[0:v]settb=AVTB,setpts=PTS-STARTPTS,format=pix_fmts=yuv420p10,fps=24000/1001,scale=1920:1080:flags=bicubic[main];[1:v]settb=AVTB,setpts=PTS-STARTPTS,format=pix_fmts=yuv420p,fps=24000/1001,scale=1920:1080:flags=bicubic[ref];[main][ref]psnr=eof_action=endall:stats_file='D\\:/Convert/FFMetrics/logs/psnr_logfile-6.txt'" -f null -
Input #0, matroska,webm, from 'G:\Аниме\Онгоинги\!_36_Осень_2024\DreamCast\Если бы моя жена стала младшеклассницей\[DC] Tsuma Shougakusei ni Naru - 05_Telegram_HEVC.mkv':
  Metadata:
    COMPATIBLE_BRANDS: isomiso2avc1mp41
    MAJOR_BRAND     : isom
    MINOR_VERSION   : 512
    ENCODER         : Lavf61.7.100
  Duration: 00:23:46.69, start: -0.021000, bitrate: 812 kb/s
  Stream #0:0: Video: hevc (Main 10), yuv420p10le(tv, bt709, progressive), 1920x1080 [SAR 1:1 DAR 16:9], 23.98 fps, 23.98 tbr, 1k tbn (default)
      Metadata:
        HANDLER_NAME    : VideoHandler
        VENDOR_ID       : [0][0][0][0]
        ENCODER         : Lavc61.19.100 libx265
        BPS             : 615194
        DURATION        : 00:23:46.591708333
        NUMBER_OF_FRAMES: 34204
        NUMBER_OF_BYTES : 109703954
        _STATISTICS_WRITING_APP: mkvpropedit v66.0.0 ('Josie') 64-bit
        _STATISTICS_WRITING_DATE_UTC: 2025-05-30 15:07:30
        _STATISTICS_TAGS: BPS DURATION NUMBER_OF_FRAMES NUMBER_OF_BYTES
  Stream #0:1: Audio: aac (LC), 48000 Hz, stereo, fltp (default)
      Metadata:
        HANDLER_NAME    : SoundHandler
        VENDOR_ID       : [0][0][0][0]
        ENCODER         : Lavc61.19.100 aac
        BPS             : 193160
        DURATION        : 00:23:46.688000000
        NUMBER_OF_FRAMES: 66877
        NUMBER_OF_BYTES : 34447451
        _STATISTICS_WRITING_APP: mkvpropedit v66.0.0 ('Josie') 64-bit
        _STATISTICS_WRITING_DATE_UTC: 2025-05-30 15:07:30
        _STATISTICS_TAGS: BPS DURATION NUMBER_OF_FRAMES NUMBER_OF_BYTES
Input #1, mov,mp4,m4a,3gp,3g2,mj2, from 'G:\Аниме\Онгоинги\!_36_Осень_2024\DreamCast\Если бы моя жена стала младшеклассницей\[DC] Tsuma Shougakusei ni Naru - 05_Telegram.mp4':
  Metadata:
    major_brand     : isom
    minor_version   : 512
    compatible_brands: isomiso2avc1mp41
    encoder         : Lavf61.1.100
  Duration: 00:23:46.66, start: 0.000000, bitrate: 3348 kb/s
  Stream #1:0[0x1](und): Video: h264 (High) (avc1 / 0x31637661), yuv420p(tv, bt709, progressive), 1920x1080 [SAR 1:1 DAR 16:9], 3201 kb/s, 23.98 fps, 23.98 tbr, 24k tbn (default)
      Metadata:
        handler_name    : VideoHandler
        vendor_id       : [0][0][0][0]
        encoder         : Lavc61.3.100 h264_qsv
  Stream #1:1[0x2](und): Audio: aac (HE-AACv2) (mp4a / 0x6134706D), 48000 Hz, stereo, fltp, 144 kb/s (default)
      Metadata:
        handler_name    : SoundHandler
        vendor_id       : [0][0][0][0]
Stream mapping:
  Stream #0:0 (hevc) -> settb:default
  Stream #1:0 (h264) -> settb:default
  psnr:default -> Stream #0:0 (wrapped_avframe)
  Stream #0:1 -> #0:1 (aac (native) -> pcm_s16le (native))
Output #0, null, to 'pipe:':
  Metadata:
    COMPATIBLE_BRANDS: isomiso2avc1mp41
    MAJOR_BRAND     : isom
    MINOR_VERSION   : 512
    encoder         : Lavf61.7.100
  Stream #0:0: Video: wrapped_avframe, yuv420p10le(tv, bt709, progressive), 1920x1080 [SAR 1:1 DAR 16:9], q=2-31, 200 kb/s, 23.98 fps, 23.98 tbn
      Metadata:
        encoder         : Lavc61.19.100 wrapped_avframe
  Stream #0:1: Audio: pcm_s16le, 48000 Hz, stereo, s16, 1536 kb/s (default)
      Metadata:
        HANDLER_NAME    : SoundHandler
        VENDOR_ID       : [0][0][0][0]
        _STATISTICS_TAGS: BPS DURATION NUMBER_OF_FRAMES NUMBER_OF_BYTES
        BPS             : 193160
        DURATION        : 00:23:46.688000000
        NUMBER_OF_FRAMES: 66877
        NUMBER_OF_BYTES : 34447451
        _STATISTICS_WRITING_APP: mkvpropedit v66.0.0 ('Josie') 64-bit
        _STATISTICS_WRITING_DATE_UTC: 2025-05-30 15:07:30
        encoder         : Lavc61.19.100 pcm_s16le
frame=  176 fps=0.0 q=-0.0 size=N/A time=00:00:07.34 bitrate=N/A speed=13.9x    frame=  432 fps=418 q=-0.0 size=N/A time=00:00:18.01 bitrate=N/A speed=17.4x    frame=  717 fps=461 q=-0.0 size=N/A time=00:00:29.90 bitrate=N/A speed=19.2x    frame= 1001 fps=486 q=-0.0 size=N/A time=00:00:41.75 bitrate=N/A speed=20.3x    frame= 1274 fps=493 q=-0.0 size=N/A time=00:00:53.13 bitrate=N/A speed=20.6x    frame= 1510 fps=487 q=-0.0 size=N/A time=00:01:02.97 bitrate=N/A speed=20.3x    frame= 1699 fps=471 q=-0.0 size=N/A time=00:01:10.86 bitrate=N/A speed=19.6x    frame= 1825 fps=442 q=-0.0 size=N/A time=00:01:16.11 bitrate=N/A speed=18.4x    frame= 1963 fps=423 q=-0.0 size=N/A time=00:01:21.87 bitrate=N/A speed=17.6x    frame= 2189 fps=424 q=-0.0 size=N/A time=00:01:31.29 bitrate=N/A speed=17.7x    frame= 2417 fps=426 q=-0.0 size=N/A time=00:01:40.80 bitrate=N/A speed=17.8x    frame= 2643 fps=427 q=-0.0 size=N/A time=00:01:50.23 bitrate=N/A speed=17.8x    frame= 2823 fps=421 q=-0.0 size=N/A time=00:01:57.74 bitrate=N/A speed=17.6x    frame= 2997 fps=415 q=-0.0 size=N/A time=00:02:04.99 bitrate=N/A speed=17.3x    frame= 3199 fps=413 q=-0.0 size=N/A time=00:02:13.42 bitrate=N/A speed=17.2x    frame= 3358 fps=407 q=-0.0 size=N/A time=00:02:20.05 bitrate=N/A speed=  17x    frame= 3491 fps=398 q=-0.0 size=N/A time=00:02:25.60 bitrate=N/A speed=16.6x    frame= 3717 fps=400 q=-0.0 size=N/A time=00:02:35.02 bitrate=N/A speed=16.7x    frame= 3984 fps=406 q=-0.0 size=N/A time=00:02:46.16 bitrate=N/A speed=  17x    frame= 4255 fps=412 q=-0.0 size=N/A time=00:02:57.46 bitrate=N/A speed=17.2x    frame= 4536 fps=419 q=-0.0 size=N/A time=00:03:09.18 bitrate=N/A speed=17.5x    frame= 4807 fps=423 q=-0.0 size=N/A time=00:03:20.49 bitrate=N/A speed=17.7x    frame= 5067 fps=427 q=-0.0 size=N/A time=00:03:31.33 bitrate=N/A speed=17.8x    frame= 5340 fps=431 q=-0.0 size=N/A time=00:03:42.72 bitrate=N/A speed=  18x    frame= 5622 fps=436 q=-0.0 size=N/A time=00:03:54.48 bitrate=N/A speed=18.2x    frame= 5915 fps=441 q=-0.0 size=N/A time=00:04:06.70 bitrate=N/A speed=18.4x    frame= 6193 fps=445 q=-0.0 size=N/A time=00:04:18.29 bitrate=N/A speed=18.6x    frame= 6458 fps=447 q=-0.0 size=N/A time=00:04:29.35 bitrate=N/A speed=18.6x    frame= 6730 fps=450 q=-0.0 size=N/A time=00:04:40.69 bitrate=N/A speed=18.8x    frame= 7002 fps=452 q=-0.0 size=N/A time=00:04:52.04 bitrate=N/A speed=18.9x    frame= 7282 fps=456 q=-0.0 size=N/A time=00:05:03.72 bitrate=N/A speed=  19x    frame= 7561 fps=458 q=-0.0 size=N/A time=00:05:15.35 bitrate=N/A speed=19.1x    frame= 7825 fps=460 q=-0.0 size=N/A time=00:05:26.36 bitrate=N/A speed=19.2x    frame= 8099 fps=462 q=-0.0 size=N/A time=00:05:37.79 bitrate=N/A speed=19.3x    frame= 8385 fps=465 q=-0.0 size=N/A time=00:05:49.72 bitrate=N/A speed=19.4x    frame= 8659 fps=466 q=-0.0 size=N/A time=00:06:01.15 bitrate=N/A speed=19.5x    frame= 8933 fps=468 q=-0.0 size=N/A time=00:06:12.58 bitrate=N/A speed=19.5x    frame= 9189 fps=469 q=-0.0 size=N/A time=00:06:23.25 bitrate=N/A speed=19.6x    frame= 9462 fps=471 q=-0.0 size=N/A time=00:06:34.64 bitrate=N/A speed=19.6x    frame= 9742 fps=472 q=-0.0 size=N/A time=00:06:46.32 bitrate=N/A speed=19.7x    frame=10013 fps=474 q=-0.0 size=N/A time=00:06:57.62 bitrate=N/A speed=19.8x    frame=10293 fps=475 q=-0.0 size=N/A time=00:07:09.30 bitrate=N/A speed=19.8x    frame=10571 fps=477 q=-0.0 size=N/A time=00:07:20.89 bitrate=N/A speed=19.9x    frame=10831 fps=477 q=-0.0 size=N/A time=00:07:31.74 bitrate=N/A speed=19.9x    frame=11117 fps=479 q=-0.0 size=N/A time=00:07:43.67 bitrate=N/A speed=  20x    frame=11394 fps=480 q=-0.0 size=N/A time=00:07:55.22 bitrate=N/A speed=  20x    frame=11675 fps=482 q=-0.0 size=N/A time=00:08:06.94 bitrate=N/A speed=20.1x    frame=11920 fps=482 q=-0.0 size=N/A time=00:08:17.16 bitrate=N/A speed=20.1x    frame=12192 fps=482 q=-0.0 size=N/A time=00:08:28.50 bitrate=N/A speed=20.1x    frame=12461 fps=483 q=-0.0 size=N/A time=00:08:39.72 bitrate=N/A speed=20.2x    frame=12735 fps=484 q=-0.0 size=N/A time=00:08:51.15 bitrate=N/A speed=20.2x    frame=12988 fps=484 q=-0.0 size=N/A time=00:09:01.70 bitrate=N/A speed=20.2x    frame=13263 fps=485 q=-0.0 size=N/A time=00:09:13.17 bitrate=N/A speed=20.2x    frame=13531 fps=486 q=-0.0 size=N/A time=00:09:24.35 bitrate=N/A speed=20.3x    frame=13806 fps=487 q=-0.0 size=N/A time=00:09:35.82 bitrate=N/A speed=20.3x    frame=14065 fps=487 q=-0.0 size=N/A time=00:09:46.62 bitrate=N/A speed=20.3x    frame=14308 fps=487 q=-0.0 size=N/A time=00:09:56.76 bitrate=N/A speed=20.3x    frame=14555 fps=487 q=-0.0 size=N/A time=00:10:07.06 bitrate=N/A speed=20.3x    frame=14802 fps=487 q=-0.0 size=N/A time=00:10:17.36 bitrate=N/A speed=20.3x    frame=15065 fps=487 q=-0.0 size=N/A time=00:10:28.33 bitrate=N/A speed=20.3x    frame=15329 fps=487 q=-0.0 size=N/A time=00:10:39.34 bitrate=N/A speed=20.3x    frame=15573 fps=487 q=-0.0 size=N/A time=00:10:49.52 bitrate=N/A speed=20.3x    frame=15824 fps=487 q=-0.0 size=N/A time=00:10:59.99 bitrate=N/A speed=20.3x    frame=16061 fps=487 q=-0.0 size=N/A time=00:11:09.87 bitrate=N/A speed=20.3x    frame=16317 fps=487 q=-0.0 size=N/A time=00:11:20.55 bitrate=N/A speed=20.3x    frame=16583 fps=487 q=-0.0 size=N/A time=00:11:31.64 bitrate=N/A speed=20.3x    frame=16860 fps=488 q=-0.0 size=N/A time=00:11:43.20 bitrate=N/A speed=20.4x    frame=17126 fps=488 q=-0.0 size=N/A time=00:11:54.29 bitrate=N/A speed=20.4x    frame=17405 fps=489 q=-0.0 size=N/A time=00:12:05.93 bitrate=N/A speed=20.4x    frame=17654 fps=489 q=-0.0 size=N/A time=00:12:16.31 bitrate=N/A speed=20.4x    frame=17931 fps=490 q=-0.0 size=N/A time=00:12:27.87 bitrate=N/A speed=20.4x    frame=18200 fps=490 q=-0.0 size=N/A time=00:12:39.09 bitrate=N/A speed=20.4x    frame=18472 fps=491 q=-0.0 size=N/A time=00:12:50.43 bitrate=N/A speed=20.5x    frame=18747 fps=491 q=-0.0 size=N/A time=00:13:01.90 bitrate=N/A speed=20.5x    frame=19022 fps=492 q=-0.0 size=N/A time=00:13:13.37 bitrate=N/A speed=20.5x    frame=19265 fps=492 q=-0.0 size=N/A time=00:13:23.51 bitrate=N/A speed=20.5x    frame=19522 fps=492 q=-0.0 size=N/A time=00:13:34.23 bitrate=N/A speed=20.5x    frame=19786 fps=492 q=-0.0 size=N/A time=00:13:45.24 bitrate=N/A speed=20.5x    frame=20069 fps=493 q=-0.0 size=N/A time=00:13:57.04 bitrate=N/A speed=20.5x    frame=20348 fps=493 q=-0.0 size=N/A time=00:14:08.68 bitrate=N/A speed=20.6x    frame=20622 fps=494 q=-0.0 size=N/A time=00:14:20.10 bitrate=N/A speed=20.6x    frame=20888 fps=494 q=-0.0 size=N/A time=00:14:31.20 bitrate=N/A speed=20.6x    frame=21167 fps=495 q=-0.0 size=N/A time=00:14:42.84 bitrate=N/A speed=20.6x    frame=21454 fps=495 q=-0.0 size=N/A time=00:14:54.81 bitrate=N/A speed=20.7x    frame=21734 fps=496 q=-0.0 size=N/A time=00:15:06.48 bitrate=N/A speed=20.7x    frame=22004 fps=496 q=-0.0 size=N/A time=00:15:17.75 bitrate=N/A speed=20.7x    frame=22271 fps=496 q=-0.0 size=N/A time=00:15:28.88 bitrate=N/A speed=20.7x    frame=22550 fps=497 q=-0.0 size=N/A time=00:15:40.52 bitrate=N/A speed=20.7x    frame=22807 fps=497 q=-0.0 size=N/A time=00:15:51.24 bitrate=N/A speed=20.7x    frame=23059 fps=497 q=-0.0 size=N/A time=00:16:01.75 bitrate=N/A speed=20.7x    frame=23327 fps=497 q=-0.0 size=N/A time=00:16:12.93 bitrate=N/A speed=20.7x    frame=23595 fps=497 q=-0.0 size=N/A time=00:16:24.10 bitrate=N/A speed=20.7x    frame=23869 fps=498 q=-0.0 size=N/A time=00:16:35.53 bitrate=N/A speed=20.8x    frame=24147 fps=498 q=-0.0 size=N/A time=00:16:47.13 bitrate=N/A speed=20.8x    frame=24392 fps=498 q=-0.0 size=N/A time=00:16:57.34 bitrate=N/A speed=20.8x    frame=24660 fps=498 q=-0.0 size=N/A time=00:17:08.52 bitrate=N/A speed=20.8x    frame=24935 fps=498 q=-0.0 size=N/A time=00:17:19.99 bitrate=N/A speed=20.8x    frame=25196 fps=499 q=-0.0 size=N/A time=00:17:30.88 bitrate=N/A speed=20.8x    frame=25489 fps=499 q=-0.0 size=N/A time=00:17:43.10 bitrate=N/A speed=20.8x    frame=25762 fps=500 q=-0.0 size=N/A time=00:17:54.49 bitrate=N/A speed=20.8x    frame=26036 fps=500 q=-0.0 size=N/A time=00:18:05.91 bitrate=N/A speed=20.9x    frame=26306 fps=500 q=-0.0 size=N/A time=00:18:17.17 bitrate=N/A speed=20.9x    frame=26580 fps=500 q=-0.0 size=N/A time=00:18:28.60 bitrate=N/A speed=20.9x    frame=26884 fps=501 q=-0.0 size=N/A time=00:18:41.28 bitrate=N/A speed=20.9x    frame=27155 fps=502 q=-0.0 size=N/A time=00:18:52.58 bitrate=N/A speed=20.9x    frame=27425 fps=502 q=-0.0 size=N/A time=00:19:03.85 bitrate=N/A speed=20.9x    frame=27710 fps=502 q=-0.0 size=N/A time=00:19:15.73 bitrate=N/A speed=20.9x    frame=27960 fps=502 q=-0.0 size=N/A time=00:19:26.16 bitrate=N/A speed=20.9x    frame=28216 fps=502 q=-0.0 size=N/A time=00:19:36.84 bitrate=N/A speed=20.9x    frame=28464 fps=502 q=-0.0 size=N/A time=00:19:47.18 bitrate=N/A speed=20.9x    frame=28709 fps=502 q=-0.0 size=N/A time=00:19:57.40 bitrate=N/A speed=20.9x    frame=28975 fps=502 q=-0.0 size=N/A time=00:20:08.49 bitrate=N/A speed=20.9x    frame=29254 fps=502 q=-0.0 size=N/A time=00:20:20.13 bitrate=N/A speed=20.9x    frame=29520 fps=502 q=-0.0 size=N/A time=00:20:31.23 bitrate=N/A speed=20.9x    frame=29783 fps=502 q=-0.0 size=N/A time=00:20:42.19 bitrate=N/A speed=20.9x    frame=30062 fps=503 q=-0.0 size=N/A time=00:20:53.83 bitrate=N/A speed=  21x    frame=30319 fps=503 q=-0.0 size=N/A time=00:21:04.55 bitrate=N/A speed=  21x    frame=30590 fps=503 q=-0.0 size=N/A time=00:21:15.85 bitrate=N/A speed=  21x    frame=30861 fps=503 q=-0.0 size=N/A time=00:21:27.16 bitrate=N/A speed=  21x    frame=31149 fps=503 q=-0.0 size=N/A time=00:21:39.17 bitrate=N/A speed=  21x    frame=31436 fps=504 q=-0.0 size=N/A time=00:21:51.14 bitrate=N/A speed=  21x    frame=31709 fps=504 q=-0.0 size=N/A time=00:22:02.52 bitrate=N/A speed=  21x    frame=31996 fps=504 q=-0.0 size=N/A time=00:22:14.49 bitrate=N/A speed=  21x    frame=32257 fps=504 q=-0.0 size=N/A time=00:22:25.38 bitrate=N/A speed=  21x    frame=32504 fps=504 q=-0.0 size=N/A time=00:22:35.68 bitrate=N/A speed=  21x    frame=32761 fps=504 q=-0.0 size=N/A time=00:22:46.40 bitrate=N/A speed=  21x    frame=33018 fps=504 q=-0.0 size=N/A time=00:22:57.12 bitrate=N/A speed=  21x    frame=33243 fps=504 q=-0.0 size=N/A time=00:23:06.51 bitrate=N/A speed=  21x    frame=33397 fps=502 q=-0.0 size=N/A time=00:23:12.93 bitrate=N/A speed=20.9x    frame=33546 fps=500 q=-0.0 size=N/A time=00:23:19.14 bitrate=N/A speed=20.9x    frame=33699 fps=499 q=-0.0 size=N/A time=00:23:25.52 bitrate=N/A speed=20.8x    frame=33876 fps=498 q=-0.0 size=N/A time=00:23:32.91 bitrate=N/A speed=20.8x    frame=34087 fps=497 q=-0.0 size=N/A time=00:23:41.71 bitrate=N/A speed=20.7x    [Parsed_psnr_10 @ 000001f9169bed40] PSNR y:49.677628 u:51.658517 v:51.881480 average:50.269339 min:39.347403 max:inf
[out#0/null @ 000001f915824100] video:14697KiB audio:267508KiB subtitle:0KiB other streams:0KiB global headers:0KiB muxing overhead: unknown
frame=34204 fps=497 q=-0.0 Lsize=N/A time=00:23:46.59 bitrate=N/A speed=20.7x    
